<?xml version="1.0" encoding="UTF-8"?>
<svg version="1.1" xmlns="http://www.w3.org/2000/svg" width="767" height="150">
<path d="M0 0 C1.22052063 -0.0049926 1.22052063 -0.0049926 2.46569824 -0.01008606 C4.1872501 -0.015152 5.90881179 -0.01749449 7.63037109 -0.01733398 C10.27067123 -0.01952248 12.91055497 -0.03768692 15.55078125 -0.05664062 C17.22135273 -0.05957416 18.89192621 -0.06155922 20.5625 -0.0625 C21.35523315 -0.06968552 22.14796631 -0.07687103 22.96472168 -0.08427429 C28.55242318 -0.06085807 28.55242318 -0.06085807 30.78125 2.16796875 C30.78125 3.15796875 30.78125 4.14796875 30.78125 5.16796875 C31.44125 5.16796875 32.10125 5.16796875 32.78125 5.16796875 C33.06097656 5.93238281 33.34070313 6.69679688 33.62890625 7.484375 C35.98179006 13.77134106 38.51187002 19.86510621 41.40625 25.91796875 C47.78125 39.28193344 47.78125 39.28193344 47.78125 44.16796875 C48.44125 44.16796875 49.10125 44.16796875 49.78125 44.16796875 C50.20083984 45.31458984 50.20083984 45.31458984 50.62890625 46.484375 C52.98698155 52.78521285 55.51983391 58.90674491 58.40625 64.98046875 C64.78125 78.41435719 64.78125 78.41435719 64.78125 83.16796875 C65.44125 83.16796875 66.10125 83.16796875 66.78125 83.16796875 C67.28740298 84.43636401 67.78594099 85.70779977 68.28125 86.98046875 C68.69890625 88.04201172 68.69890625 88.04201172 69.125 89.125 C69.78125 91.16796875 69.78125 91.16796875 69.78125 94.16796875 C70.44125 94.16796875 71.10125 94.16796875 71.78125 94.16796875 C72.44125 96.14796875 73.10125 98.12796875 73.78125 100.16796875 C77.56417376 96.48151299 81.0584949 92.63745743 84.46875 88.60546875 C84.95408203 88.04150391 85.43941406 87.47753906 85.93945312 86.89648438 C88.28683617 84.12819127 90.3744581 81.53275171 91.78125 78.16796875 C96.61532252 78.58231782 98.67662674 80.54590829 101.78125 84.16796875 C102.11125 85.15796875 102.44125 86.14796875 102.78125 87.16796875 C106.08523959 88.04903264 109.37702325 88.37021694 112.78125 88.54296875 C113.60625 88.59195313 114.43125 88.6409375 115.28125 88.69140625 C119.16624697 87.87798501 120.39471912 86.33234458 122.78125 83.16796875 C123.52672106 79.46020557 123.47877293 75.80326831 123.453125 72.03125 C123.46587463 70.95546188 123.47862427 69.87967377 123.49176025 68.77128601 C123.5280575 65.3407451 123.53076934 61.91118485 123.53125 58.48046875 C123.55284512 55.03940661 123.58127135 51.59849371 123.61358643 48.15751648 C123.63138398 46.01744034 123.64163568 43.87728595 123.64373779 41.73713684 C123.64944794 40.29004585 123.64944794 40.29004585 123.65527344 38.8137207 C123.65573669 37.96276321 123.65619995 37.11180573 123.65667725 36.23506165 C123.78125 34.16796875 123.78125 34.16796875 124.78125 32.16796875 C123.79125 32.66296875 123.79125 32.66296875 122.78125 33.16796875 C120.02140349 33.26695492 117.28733544 33.30780106 114.52734375 33.30078125 C113.71129166 33.30173798 112.89523956 33.3026947 112.05445862 33.30368042 C110.32870405 33.30436131 108.60294692 33.30251336 106.87719727 33.29833984 C104.22601617 33.29298343 101.57500397 33.29829142 98.92382812 33.3046875 C97.24999962 33.30402684 95.57617123 33.30274592 93.90234375 33.30078125 C93.10444931 33.30280548 92.30655487 33.30482971 91.48448181 33.30691528 C85.89620544 33.28292419 85.89620544 33.28292419 84.78125 32.16796875 C84.69334025 29.87645458 84.67430962 27.58224351 84.68359375 25.2890625 C84.68571617 24.25906883 84.68571617 24.25906883 84.68788147 23.20826721 C84.69349521 21.00729074 84.70604993 18.80641466 84.71875 16.60546875 C84.72376324 15.11653792 84.72832645 13.62760551 84.73242188 12.13867188 C84.74346907 8.481738 84.76074287 4.82486317 84.78125 1.16796875 C88.3518341 -0.02222595 91.20461874 0.04084719 94.97485352 0.03857422 C96.06796844 0.03594574 96.06796844 0.03594574 97.1831665 0.03326416 C99.5921873 0.0288625 102.00113471 0.03177741 104.41015625 0.03515625 C106.08259597 0.0344828 107.75503559 0.03351243 109.42747498 0.03225708 C112.93204684 0.03078245 116.43659321 0.0329274 119.94116211 0.03759766 C124.43948421 0.04329921 128.93774671 0.04001176 133.43606663 0.03402519 C136.88893587 0.030417 140.34179091 0.03155928 143.79466057 0.03415298 C145.45370427 0.03482131 147.11274925 0.03399711 148.77179146 0.03167343 C151.08690957 0.02914222 153.40193019 0.03299394 155.71704102 0.03857422 C157.03591812 0.03936981 158.35479523 0.04016541 159.71363831 0.04098511 C162.78125 0.16796875 162.78125 0.16796875 164.78125 1.16796875 C164.85095034 12.20822817 164.90416274 23.2484347 164.93668652 34.28886986 C164.95230116 39.41612937 164.97346232 44.54323766 165.00756836 49.67041016 C165.0403121 54.62413634 165.05813457 59.57771762 165.06588173 64.53154373 C165.07139838 66.41565861 165.0821707 68.29976611 165.09844017 70.18381882 C165.21858256 84.68136379 164.4338847 97.53422704 154.34375 108.91796875 C153.498125 109.66046875 152.6525 110.40296875 151.78125 111.16796875 C150.935625 111.99296875 150.09 112.81796875 149.21875 113.66796875 C141.99947117 119.60883362 132.2267184 122.29023442 123.03515625 122.30078125 C121.95041016 122.30207031 120.86566406 122.30335938 119.74804688 122.3046875 C118.62462891 122.30082031 117.50121094 122.29695313 116.34375 122.29296875 C115.22419922 122.29683594 114.10464844 122.30070312 112.95117188 122.3046875 C111.86513672 122.30339844 110.77910156 122.30210937 109.66015625 122.30078125 C108.6760376 122.29965332 107.69191895 122.29852539 106.67797852 122.29736328 C103.64456103 122.16186296 100.76370167 121.72501759 97.78125 121.16796875 C97.78125 120.50796875 97.78125 119.84796875 97.78125 119.16796875 C96.89373047 118.98621094 96.89373047 118.98621094 95.98828125 118.80078125 C91.74321415 117.90052232 87.75685339 116.96340254 83.78125 115.16796875 C83.78125 114.50796875 83.78125 113.84796875 83.78125 113.16796875 C82.46125 112.83796875 81.14125 112.50796875 79.78125 112.16796875 C80.11125 114.47796875 80.44125 116.78796875 80.78125 119.16796875 C74.85481401 119.29145991 68.92912471 119.38225647 63.00170898 119.44262695 C60.98497475 119.46778946 58.96833187 119.50192305 56.9519043 119.54516602 C54.0549468 119.605742 51.15919339 119.63416044 48.26171875 119.65625 C47.35850388 119.68205643 46.455289 119.70786285 45.52470398 119.73445129 C43.17176822 119.73550834 41.07388395 119.6977823 38.78125 119.16796875 C36.74804688 116.78222656 36.74804688 116.78222656 35.78125 114.16796875 C35.46800781 113.40355469 35.15476562 112.63914062 34.83203125 111.8515625 C34.58839844 111.11035156 34.34476562 110.36914062 34.09375 109.60546875 C33.84238281 108.86167969 33.59101563 108.11789063 33.33203125 107.3515625 C32.78125 105.16796875 32.78125 105.16796875 32.78125 101.16796875 C32.12125 101.16796875 31.46125 101.16796875 30.78125 101.16796875 C30.78125 100.50796875 30.78125 99.84796875 30.78125 99.16796875 C16.59125 99.49796875 2.40125 99.82796875 -12.21875 100.16796875 C-12.71375 102.14796875 -12.71375 102.14796875 -13.21875 104.16796875 C-13.89218596 106.25589069 -14.58072124 108.33898018 -15.28125 110.41796875 C-15.64347656 111.495625 -16.00570312 112.57328125 -16.37890625 113.68359375 C-16.65605469 114.5034375 -16.93320312 115.32328125 -17.21875 116.16796875 C-17.87875 116.16796875 -18.53875 116.16796875 -19.21875 116.16796875 C-19.21875 117.15796875 -19.21875 118.14796875 -19.21875 119.16796875 C-33.07875 119.16796875 -46.93875 119.16796875 -61.21875 119.16796875 C-60.10580234 112.4902828 -60.10580234 112.4902828 -58.34375 109.35546875 C-56.09570259 105.11371506 -54.61873125 100.74972555 -53.21875 96.16796875 C-52.55875 96.16796875 -51.89875 96.16796875 -51.21875 96.16796875 C-49.73375 90.72296875 -49.73375 90.72296875 -48.21875 85.16796875 C-47.55875 85.16796875 -46.89875 85.16796875 -46.21875 85.16796875 C-46.04859375 84.46671875 -45.8784375 83.76546875 -45.703125 83.04296875 C-44.34787246 77.73729924 -42.83122365 72.94843266 -40.25390625 68.1171875 C-36.52735964 61.10002992 -33.84747806 53.64865765 -31.21875 46.16796875 C-30.55875 46.16796875 -29.89875 46.16796875 -29.21875 46.16796875 C-28.22875 42.86796875 -27.23875 39.56796875 -26.21875 36.16796875 C-26.87875 36.16796875 -27.53875 36.16796875 -28.21875 36.16796875 C-28.21875 35.17796875 -28.21875 34.18796875 -28.21875 33.16796875 C-27.61160156 33.131875 -27.00445312 33.09578125 -26.37890625 33.05859375 C-23.91634361 32.3201556 -23.91634361 32.3201556 -22.83984375 29.40234375 C-22.25396484 27.67757812 -22.25396484 27.67757812 -21.65625 25.91796875 C-20.18446442 21.65220334 -18.61907592 17.9863734 -16.21875 14.16796875 C-15.20345459 11.8412501 -14.20386802 9.50762405 -13.21875 7.16796875 C-9.85146609 -0.1053645 -7.66643345 0.01076199 0 0 Z M7.78125 46.16796875 C7.53890625 46.91820312 7.2965625 47.6684375 7.046875 48.44140625 C4.85695357 55.1290894 2.46059805 61.66098063 -0.21875 68.16796875 C6.05125 68.16796875 12.32125 68.16796875 18.78125 68.16796875 C17.79125 64.53796875 16.80125 60.90796875 15.78125 57.16796875 C15.12125 57.16796875 14.46125 57.16796875 13.78125 57.16796875 C13.6575 56.09546875 13.53375 55.02296875 13.40625 53.91796875 C12.88481064 50.7893326 12.38036746 48.83316451 10.78125 46.16796875 C9.79125 46.16796875 8.80125 46.16796875 7.78125 46.16796875 Z " fill="#FFFFFF" transform="translate(429.21875,15.83203125)"/>
<path d="M0 0 C2.40221394 1.66144312 4.69694462 3.38560506 6.97265625 5.21484375 C8.30351162 6.2181392 9.6360715 7.21919371 10.97265625 8.21484375 C11.68808594 7.62316406 12.40351563 7.03148437 13.140625 6.421875 C25.63015206 -3.48249769 37.98685553 -7.75399266 53.97265625 -6.78515625 C57.48128315 -6.13328021 60.66918676 -5.12393073 63.97265625 -3.78515625 C64.64554688 -3.51832031 65.3184375 -3.25148438 66.01171875 -2.9765625 C77.63062207 2.23111329 85.65267759 10.88500112 90.34765625 22.58984375 C94.55245031 36.42326288 92.79561346 51.37703449 86.5 64.21875 C79.92927233 76.13304816 71.42207964 86.09540057 61.71484375 95.5078125 C59.47935239 97.71464371 57.42414652 99.93558263 55.41015625 102.33984375 C50.4003743 108.22356801 44.5167476 113.42784931 38.44921875 118.19921875 C35.76551368 120.38343297 33.40432231 122.75388051 30.97265625 125.21484375 C28.27186409 127.75717107 25.52664531 130.25133635 22.7890625 132.75390625 C22.24121094 133.25664062 21.69335938 133.759375 21.12890625 134.27734375 C20.32646484 135.01017578 20.32646484 135.01017578 19.5078125 135.7578125 C18.0504472 137.14101163 16.67991812 138.61404267 15.31640625 140.08984375 C12.97265625 142.21484375 12.97265625 142.21484375 8.97265625 142.21484375 C6.66015625 140.15234375 6.66015625 140.15234375 3.97265625 137.21484375 C0.17672835 133.20478659 -3.72380832 129.60409347 -8.08984375 126.21484375 C-12.3433904 122.87694607 -15.75485684 119.52074758 -19.02734375 115.21484375 C-19.02734375 114.55484375 -19.02734375 113.89484375 -19.02734375 113.21484375 C-17.89296875 113.27671875 -16.75859375 113.33859375 -15.58984375 113.40234375 C-4.08182345 113.34873496 7.44190077 110.26725239 18.53515625 107.46484375 C19.45063232 107.24940918 20.3661084 107.03397461 21.30932617 106.81201172 C28.08178405 105.01800777 32.01985706 102.06086617 36.97265625 97.21484375 C38.30636959 96.05240182 39.64881699 94.89990137 41 93.7578125 C41.64646484 93.20287109 42.29292969 92.64792969 42.95898438 92.07617188 C44.28517125 90.93849204 45.61337276 89.80315735 46.94335938 88.66992188 C47.58080078 88.12142578 48.21824219 87.57292969 48.875 87.0078125 C49.44726318 86.51821045 50.01952637 86.0286084 50.60913086 85.52416992 C52.10056716 84.23851852 52.10056716 84.23851852 52.97265625 82.21484375 C44.99661195 82.51582655 38.27512655 85.73399509 32.0703125 90.75390625 C29.26571863 92.70719882 26.3932609 93.62196331 23.16015625 94.71484375 C17.59935814 96.60865376 17.59935814 96.60865376 12.22265625 98.96484375 C8.48507801 100.40237384 5.1826098 100.70253247 1.20703125 100.90625 C-1.30982508 101.08852939 -1.30982508 101.08852939 -4.02734375 103.21484375 C-5.01734375 103.21484375 -6.00734375 103.21484375 -7.02734375 103.21484375 C-7.35734375 102.22484375 -7.68734375 101.23484375 -8.02734375 100.21484375 C-5.33638297 97.00520542 -3.79845367 95.37741646 0.36328125 94.5 C1.636875 94.42652344 2.91046875 94.35304688 4.22265625 94.27734375 C13.40494749 93.52798931 21.45071541 90.56877591 29.97265625 87.21484375 C29.97265625 86.55484375 29.97265625 85.89484375 29.97265625 85.21484375 C28.55609832 85.18760225 27.1393858 85.16833908 25.72265625 85.15234375 C24.53929687 85.13494141 24.53929687 85.13494141 23.33203125 85.1171875 C21.03203059 85.1285746 21.03203059 85.1285746 19.10546875 85.703125 C9.94025565 87.9021047 0.1597146 86.02752114 -8.79296875 83.890625 C-14.3513085 82.72928107 -19.49659569 82.63488065 -25.02734375 83.90234375 C-27.63420169 85.61309427 -27.98741971 87.34112508 -29.02734375 90.21484375 C-42.88280131 92.26148813 -42.88280131 92.26148813 -47.76708984 89.08251953 C-51.64196731 85.37173697 -54.29423641 80.78760596 -57.02734375 76.21484375 C-57.86497447 74.9291404 -58.70736746 73.64652604 -59.5546875 72.3671875 C-68.74288109 58.20548414 -71.69735696 45.07624324 -70.02734375 28.21484375 C-69.21381047 24.44425411 -67.98527203 21.51846887 -66.02734375 18.21484375 C-65.58003906 17.35761719 -65.13273437 16.50039063 -64.671875 15.6171875 C-61.57735364 9.98399715 -58.25603339 5.93525753 -53.02734375 2.21484375 C-52.4446875 1.77527344 -51.86203125 1.33570313 -51.26171875 0.8828125 C-35.7683969 -9.890905 -15.95552306 -9.40861166 0 0 Z M-19.84375 20.8671875 C-24.30506691 25.95201377 -25.32444071 29.80127963 -25.24609375 36.51953125 C-24.43390224 46.52689088 -19.20569274 53.71417898 -11.79296875 60.1328125 C-7.54055177 63.33413771 -2.95257408 65.82923625 1.70703125 68.3828125 C5.35832761 70.43120723 8.64745595 72.68135781 11.97265625 75.21484375 C12.49472656 74.77914062 13.01679688 74.3434375 13.5546875 73.89453125 C17.72522524 70.52012068 21.8538728 67.60936359 26.59765625 65.08984375 C36.57538258 59.78135982 44.41214636 53.52072823 47.97265625 42.21484375 C48.5771061 36.26874406 49.18467983 29.56744395 46.41015625 24.08984375 C42.62383291 19.62392391 38.80401131 17.35404558 33.03515625 16.27734375 C27.76701409 15.86975055 23.375743 17.35936305 19.20703125 20.578125 C16.14814222 23.45140183 14.0882303 26.08721977 12.97265625 30.21484375 C12.97265625 31.20484375 12.97265625 32.19484375 12.97265625 33.21484375 C9.97265625 32.21484375 9.97265625 32.21484375 8.98046875 30.32421875 C8.68914062 29.545625 8.3978125 28.76703125 8.09765625 27.96484375 C6.33872996 23.78988286 4.63951493 21.0289446 0.97265625 18.21484375 C-6.4561611 15.47791104 -13.7504169 15.32421997 -19.84375 20.8671875 Z M57.97265625 80.21484375 C58.30265625 81.53484375 58.63265625 82.85484375 58.97265625 84.21484375 C59.96265625 83.22484375 60.95265625 82.23484375 61.97265625 81.21484375 C60.65265625 80.88484375 59.33265625 80.55484375 57.97265625 80.21484375 Z " fill="#2006A6" transform="translate(156.02734375,7.78515625)"/>
<path d="M0 0 C0 0.66 0 1.32 0 2 C0.99 2.103125 1.98 2.20625 3 2.3125 C7.28297163 2.90808706 10.99996371 4.38595027 15 6 C14.45018084 12.04801071 13.09570426 17.30601106 11 23 C10.34 23 9.68 23 9 23 C8.89042969 23.59167969 8.78085937 24.18335937 8.66796875 24.79296875 C7.74085597 29.41345763 6.77648665 33.0876779 4 37 C0.35601118 36.63560112 -2.53151596 36.2394474 -5.8125 34.5625 C-15.51274331 29.80747877 -31.68207629 28.5606921 -42 32 C-42 33.98 -42 35.96 -42 38 C-35.86564932 41.03672112 -29.79057416 42.11418215 -23.0625 43.1875 C-21.99708984 43.36474609 -20.93167969 43.54199219 -19.83398438 43.72460938 C-17.2238539 44.15768035 -14.61266981 44.58257234 -12 45 C-12 45.66 -12 46.32 -12 47 C-10.515 47.1546875 -10.515 47.1546875 -9 47.3125 C1.5257167 48.8976983 10.10751643 54.73880504 16.78125 62.98828125 C21.92760364 71.48306369 21.69083477 81.03919004 19.9375 90.4375 C17.30789454 100.98027005 10.11823414 108.34125849 1 114 C-3.57673572 116.00805554 -8.21187829 117.57844028 -13 119 C-14.49853516 119.55494141 -14.49853516 119.55494141 -16.02734375 120.12109375 C-21.94243926 121.78880037 -28.29082261 121.24553181 -34.375 121.1875 C-35.65117187 121.18685547 -36.92734375 121.18621094 -38.2421875 121.18554688 C-55.84505088 121.10371538 -55.84505088 121.10371538 -62.375 118.625 C-67.50514342 116.78178033 -72.73137816 115.38855267 -78 114 C-78 113.34 -78 112.68 -78 112 C-80.64 111.34 -83.28 110.68 -86 110 C-86.55577452 105.55380384 -85.09676288 102.83225233 -83.0703125 99.02734375 C-81.86269867 96.73992923 -80.85735832 94.38576338 -79.8515625 92.00390625 C-78.73192475 89.36916237 -77.59329159 86.74411836 -76.4375 84.125 C-76.02371094 83.17882812 -75.60992187 82.23265625 -75.18359375 81.2578125 C-74 79 -74 79 -72 78 C-70.30078125 78.70703125 -70.30078125 78.70703125 -68.3125 79.8125 C-64.58684162 81.78090086 -61.08110395 82.97972401 -57 84 C-57 84.66 -57 85.32 -57 86 C-56.41992188 86.06058594 -55.83984375 86.12117188 -55.2421875 86.18359375 C-54.07042969 86.30927734 -54.07042969 86.30927734 -52.875 86.4375 C-51.72644531 86.55931641 -51.72644531 86.55931641 -50.5546875 86.68359375 C-48.74992521 86.90711935 -46.95240745 87.1933573 -45.1640625 87.5234375 C-41.57563865 88.06391615 -38.12841894 88.16906291 -34.5 88.1875 C-33.2315625 88.20167969 -31.963125 88.21585937 -30.65625 88.23046875 C-27.07886272 88.00497105 -24.3236694 87.29766722 -21 86 C-20.94832473 83.57732914 -20.94832473 83.57732914 -22 81 C-27.01740678 78.41370784 -31.90120149 77.23943744 -37.4375 76.3125 C-38.53481445 76.11817383 -38.53481445 76.11817383 -39.65429688 75.91992188 C-41.434877 75.60570185 -43.21726583 75.30175932 -45 75 C-45 74.34 -45 73.68 -45 73 C-46.27875 72.896875 -47.5575 72.79375 -48.875 72.6875 C-54.13670594 72.11866692 -58.99147146 70.6625387 -64 69 C-64 68.34 -64 67.68 -64 67 C-65.1446875 66.814375 -65.1446875 66.814375 -66.3125 66.625 C-69 66 -69 66 -72 64 C-72 63.34 -72 62.68 -72 62 C-72.59554688 61.73445313 -73.19109375 61.46890625 -73.8046875 61.1953125 C-78.58597133 58.59198002 -81.41499786 54.48909635 -83.375 49.5 C-85.37469427 38.9036819 -85.37080117 26.76735157 -79.3828125 17.49609375 C-76.59960277 13.77519319 -73.91567717 10.56488915 -70 8 C-69.34 8 -68.68 8 -68 8 C-68 7.34 -68 6.68 -68 6 C-66.56570999 5.32645501 -65.12742943 4.66140299 -63.6875 4 C-62.88699219 3.62875 -62.08648437 3.2575 -61.26171875 2.875 C-59 2 -59 2 -56 2 C-56 1.34 -56 0.68 -56 0 C-36.43175723 -3.60863313 -19.59620145 -3.4045107 0 0 Z " fill="#FFFFFF" transform="translate(350,17)"/>
<path d="M0 0 C0.99 0.33 1.98 0.66 3 1 C3 1.66 3 2.32 3 3 C0.4385343 5.29648649 -0.47967572 6 -4 6 C-4 5.34 -4 4.68 -4 4 C-4.99 4 -5.98 4 -7 4 C-7 3.34 -7 2.68 -7 2 C-5.68 2 -4.36 2 -3 2 C-3 2.66 -3 3.32 -3 4 C-2.34 3.67 -1.68 3.34 -1 3 C-0.67 2.01 -0.34 1.02 0 0 Z " fill="#FFFFFF" transform="translate(350,10)"/>
<path d="M0 0 C1.32 0 2.64 0 4 0 C4 0.99 4 1.98 4 3 C3.34 3 2.68 3 2 3 C2 3.99 2 4.98 2 6 C1.01 5.67 0.02 5.34 -1 5 C-0.67 3.35 -0.34 1.7 0 0 Z " fill="#FFFFFF" transform="translate(366,18)"/>
<path d="M0 0 C1.98 0.99 1.98 0.99 4 2 C4 2.99 4 3.98 4 5 C3.01 5.33 2.02 5.66 1 6 C0.67 4.02 0.34 2.04 0 0 Z " fill="#FFFFFF" transform="translate(366,28)"/>
<path d="M0 0 C0.66 0.33 1.32 0.66 2 1 C2 1.99 2 2.98 2 4 C1.01 3.67 0.02 3.34 -1 3 C-0.67 2.01 -0.34 1.02 0 0 Z " fill="#FFFFFF" transform="translate(438,64)"/>
<path d="M0 0 C0.66 0 1.32 0 2 0 C2 0.99 2 1.98 2 3 C1.01 3 0.02 3 -1 3 C-0.67 2.01 -0.34 1.02 0 0 Z " fill="#FFFFFF" transform="translate(459,119)"/>
<path d="M0 0 C1.32 0 2.64 0 4 0 C4 0.66 4 1.32 4 2 C2.68 2 1.36 2 0 2 C0 1.34 0 0.68 0 0 Z " fill="#2006A6" transform="translate(330,0)"/>
<path d="M0 0 C0.99 0.33 1.98 0.66 3 1 C3 1.33 3 1.66 3 2 C1.35 2 -0.3 2 -2 2 C-1.34 1.34 -0.68 0.68 0 0 Z " fill="#FFFFFF" transform="translate(330,11)"/>
<path d="M0 0 C0.99 0.33 1.98 0.66 3 1 C2.34 1.66 1.68 2.32 1 3 C0.67 2.01 0.34 1.02 0 0 Z " fill="#FFFFFF" transform="translate(392,68)"/>
<path d="M0 0 C0.66 0 1.32 0 2 0 C2 0.99 2 1.98 2 3 C1.34 3 0.68 3 0 3 C0 2.01 0 1.02 0 0 Z " fill="#FFFFFF" transform="translate(394,65)"/>
<path d="M0 0 C0.99 0 1.98 0 3 0 C3 0.66 3 1.32 3 2 C2.01 1.67 1.02 1.34 0 1 C0 0.67 0 0.34 0 0 Z " fill="#FFFFFF" transform="translate(360,19)"/>
<path d="M0 0 C0.66 0 1.32 0 2 0 C2 0.66 2 1.32 2 2 C1.34 2 0.68 2 0 2 C0 1.34 0 0.68 0 0 Z " fill="#FFFFFF" transform="translate(463,130)"/>
<path d="M0 0 C0.66 0 1.32 0 2 0 C2 0.66 2 1.32 2 2 C1.34 2 0.68 2 0 2 C0 1.34 0 0.68 0 0 Z " fill="#FFFFFF" transform="translate(493,89)"/>
<path d="M0 0 C0.66 0 1.32 0 2 0 C2 0.66 2 1.32 2 2 C1.34 2 0.68 2 0 2 C0 1.34 0 0.68 0 0 Z " fill="#2006A6" transform="translate(341,0)"/>
<path d="M0 0 C0.99 0.495 0.99 0.495 2 1 C1.01 1.495 1.01 1.495 0 2 C0 1.34 0 0.68 0 0 Z " fill="#FFFFFF" transform="translate(395,58)"/>
<path d="" fill="#FFFFFF" transform="translate(0,0)"/>
<path d="" fill="#FFFFFF" transform="translate(0,0)"/>
<path d="M0 0 C2 1 2 1 2 1 Z " fill="#FFFFFF" transform="translate(329,58)"/>
<path d="" fill="#FFFFFF" transform="translate(0,0)"/>
<path d="" fill="#2006A6" transform="translate(0,0)"/>
<path d="" fill="#FFFFFF" transform="translate(0,0)"/>
</svg>
