<svg width="200" height="60" viewBox="0 0 200 60" fill="none" xmlns="http://www.w3.org/2000/svg">
  <rect width="200" height="60" fill="none"/>
  <!-- Heart Icon with Hand and Heart Silhouette -->
  <g transform="translate(10, 5)">
    <!-- Main Heart -->
    <path d="M40 5C32 5 28 11 25 14C22 11 18 5 10 5C3 5 0 11 0 20C0 35 15 45 25 50C35 45 50 35 50 20C50 11 47 5 40 5Z" fill="#10069F"/>
    <!-- Internal Heart Silhouette -->
    <path d="M25 18C27 15 30 15 32 15C35 15 37 17 37 20C37 25 30 30 25 33C20 30 13 25 13 20C13 17 15 15 18 15C20 15 23 15 25 18Z" fill="white"/>
    <!-- Hand Silhouette -->
    <path d="M25 31C25 31 18 34 14 34C12 34 8 33 8 33C8 33 11 36 14 38C17 40 25 42 25 42C25 42 33 40 36 38C39 36 42 33 42 33C42 33 38 34 36 34C32 34 25 31 25 31Z" fill="white"/>
  </g>
  <!-- SAJ Text (Custom Font Paths for Higher Fidelity) -->
  <g transform="translate(70, 10)" fill="#10069F">
    <!-- S -->
    <path d="M0 38L5 42C10 46 25 46 25 35C25 28 15 28 15 22C15 18 22 18 22 21L27 17C24 12 10 12 10 22C10 29 20 29 20 35C20 40 10 40 5 35L0 38Z"/>
    <!-- A -->
    <path d="M35 42H41L44 32H56L59 42H65L53 5H47L35 42ZM54 27H46L50 15L54 27Z"/>
    <!-- J -->
    <path d="M90 5V30C90 40 85 43 75 43H70V37H75C80 37 83 36 83 30V5H90Z"/>
  </g>
</svg>